<svg aria-hidden="true" xmlns="http://www.w3.org/2000/svg" xmlns:xlink="http://www.w3.org/1999/xlink">
<symbol id="css" viewBox="0 0 24 24"><path d="M7.502 0h2.578v1.078h-1.5v1.078h1.5v1.078H7.502V0ZM10.595 0h2.579v.938h-1.5v.187h1.5v2.156h-2.579v-.984h1.5v-.188h-1.5V0ZM13.69 0h2.577v.938h-1.5v.187h1.5v2.156H13.69v-.984h1.5v-.188h-1.5V0Z" fill="#347dc6" class="fill-000000"></path><path clip-rule="evenodd" d="m11.991 24-6.944-1.928L3 4.717h18L18.954 22.07 11.991 24ZM7.047 12.573l.191 2.128h7.377l-.247 2.76-2.374.642h-.002l-2.37-.64-.152-1.697H7.333l.298 3.342 4.36 1.21 4.367-1.21.532-5.964.052-.571.384-4.309H6.664l.194 2.129h8.136l-.194 2.18H7.047Z" fill="#347dc6" fill-rule="evenodd" class="fill-000000"></path></symbol>
<symbol id="figma" viewBox="0 0 3e3 3e3"><path fill="#0ACF83" d="m1083.3 2750c230 0 416.67-186.67 416.67-416.67v-416.67h-416.67c-230 0-416.67 186.67-416.67 416.67s186.67 416.67 416.67 416.67z"/><path fill="#A259FF" d="m666.67 1500c0-230 186.67-416.67 416.67-416.67h416.67v833.33h-416.67c-230 0-416.67-186.67-416.67-416.67z"/><path fill="#F24E1E" d="m666.67 666.67c0-230 186.67-416.67 416.67-416.67h416.67v833.33h-416.67c-230 0-416.67-186.67-416.67-416.67z"/><path fill="#FF7262" d="m1500 250h416.67c230 0 416.67 186.67 416.67 416.67s-186.67 416.67-416.67 416.67h-416.67v-833.33z"/><path fill="#1ABCFE" d="m2333.3 1500c0 230-186.67 416.67-416.67 416.67s-416.67-186.67-416.67-416.67 186.67-416.67 416.67-416.67 416.67 186.67 416.67 416.67z"/></symbol>
<symbol id="github" viewBox="0 0 448 512"><path d="M100.59 334.24c48.57 3.31 58.95 2.11 58.95 11.94 0 20-65.55 20.06-65.55 1.52.01-5.09 3.29-9.4 6.6-13.46zm27.95-116.64c-32.29 0-33.75 44.47-.75 44.47 32.51 0 31.71-44.47.75-44.47zM448 80v352a48 48 0 0 1-48 48H48a48 48 0 0 1-48-48V80a48 48 0 0 1 48-48h352a48 48 0 0 1 48 48zm-227 69.31c0 14.49 8.38 22.88 22.86 22.88 14.74 0 23.13-8.39 23.13-22.88S258.62 127 243.88 127c-14.48 0-22.88 7.84-22.88 22.31zM199.18 195h-49.55c-25-6.55-81.56-4.85-81.56 46.75 0 18.8 9.4 32 21.85 38.11C74.23 294.23 66.8 301 66.8 310.6c0 6.87 2.79 13.22 11.18 16.76-8.9 8.4-14 14.48-14 25.92C64 373.35 81.53 385 127.52 385c44.22 0 69.87-16.51 69.87-45.73 0-36.67-28.23-35.32-94.77-39.38l8.38-13.43c17 4.74 74.19 6.23 74.19-42.43 0-11.69-4.83-19.82-9.4-25.67l23.38-1.78zm84.34 109.84l-13-1.78c-3.82-.51-4.07-1-4.07-5.09V192.52h-52.6l-2.79 20.57c15.75 5.55 17 4.86 17 10.17V298c0 5.62-.31 4.58-17 6.87v20.06h72.42zM384 315l-6.87-22.37c-40.93 15.37-37.85-12.41-37.85-16.73v-60.72h37.85v-25.41h-35.82c-2.87 0-2 2.52-2-38.63h-24.18c-2.79 27.7-11.68 38.88-34 41.42v22.62c20.47 0 19.82-.85 19.82 2.54v66.57c0 28.72 11.43 40.91 41.67 40.91 14.45 0 30.45-4.83 41.38-10.2z"/></symbol>
<symbol id="html" viewBox="0 0 56.693 56.693"><path d="M29.019 33.741h3.755l-.353 3.959-3.402.92h-.004l-3.399-.92-.224-2.539h-3.065l.438 4.899 6.25 1.734.004-.002 6.253-1.732.836-9.368H24.991l-.279-3.123h11.674l.273-3.05H21.378l.824 9.222z" fill="#ff6c39" class="fill-000000"></path><path d="M28.347 5.157c-13.6 0-24.625 11.027-24.625 24.625 0 13.6 11.024 24.623 24.625 24.623 13.602 0 24.625-11.023 24.625-24.623 0-13.598-11.024-24.625-24.625-24.625zm6.875 7.603h1.551v3.107h2.18v1.531h-3.73V12.76zm-5.993 0h1.615l.994 1.629.994-1.629h1.617v4.639h-1.545V15.1l-1.066 1.648h-.025L30.745 15.1v2.299h-1.516V12.76zm-4.96 0h4.281v1.539h-1.367v3.1h-1.549v-3.1h-1.365V12.76zm-5.193 0h1.55v1.533h1.418V12.76h1.551v4.639h-1.551v-1.553h-1.418v1.553h-1.55V12.76zm19.902 31.548-9.965 2.764-9.954-2.766-2.218-24.872h24.355l-2.218 24.874z" fill="#ff6c39" class="fill-000000"></path></symbol><symbol id="js" viewBox="0 0 512 512"><g id="_x32_33-node-js"><g><path d="M255.908,485.999c-6.116,0-12.323-1.642-17.708-4.746l-56.319-33.316    c-8.397-4.747-4.29-6.389-1.551-7.303c11.226-3.925,13.508-4.745,25.465-11.592c1.279-0.729,2.922-0.457,4.199,0.366    l43.266,25.648c1.552,0.912,3.741,0.912,5.202,0l168.592-97.304c1.553-0.913,2.555-2.738,2.555-4.563V158.583    c0-1.917-1.002-3.651-2.645-4.654L258.463,56.716c-1.551-0.913-3.65-0.913-5.202,0L84.852,154.019    c-1.644,0.913-2.647,2.738-2.647,4.655v194.515c0,1.825,1.003,3.65,2.647,4.473l46.188,26.653    c25.102,12.504,40.436-2.191,40.436-17.068V175.195c0-2.738,2.19-4.837,4.93-4.837h21.359c2.647,0,4.928,2.099,4.928,4.837    v192.143c0,33.407-18.256,52.576-49.928,52.576c-9.768,0-17.435,0-38.794-10.588l-44.179-25.467    c-10.954-6.299-17.708-18.074-17.708-30.76V158.583c0-12.596,6.754-24.462,17.708-30.76L238.2,30.519    c10.679-6.024,24.828-6.024,35.416,0l168.594,97.394c10.953,6.298,17.707,18.073,17.707,30.761v194.515    c0,12.596-6.754,24.371-17.707,30.761l-168.594,97.303C268.23,484.357,262.113,485.999,255.908,485.999z M392.006,294.224    c0-36.421-24.646-46.096-76.4-52.941c-52.396-6.938-57.689-10.498-57.689-22.729c0-10.131,4.473-23.641,43.266-23.641    c34.596,0,47.375,7.485,52.668,30.853c0.457,2.19,2.467,3.833,4.746,3.833h21.91c1.367,0,2.645-0.547,3.559-1.552    c0.914-1.003,1.369-2.373,1.275-3.743c-3.375-40.252-30.121-58.965-84.158-58.965c-48.103,0-76.764,20.264-76.764,54.311    c0,36.876,28.569,47.101,74.664,51.662c55.225,5.387,59.514,13.511,59.514,24.373c0,18.805-15.15,26.835-50.658,26.835    c-44.635,0-54.403-11.227-57.689-33.406c-0.365-2.373-2.374-4.107-4.837-4.107h-21.817c-2.738,0-4.836,2.191-4.836,4.836    c0,28.39,15.426,62.254,89.271,62.254C361.336,352.005,392.006,330.916,392.006,294.224L392.006,294.224z" style="fill:#539E43;"/></g></g><g id="Layer_1"/></symbol><symbol id="mysql" viewBox="0 0 24 24" ><path d="M16.405 5.676c-.115 0-.193.014-.274.033v.013h.014c.054.104.146.18.214.273.054.107.1.214.154.32l.014-.015c.094-.066.14-.172.14-.333-.04-.047-.046-.094-.08-.14-.04-.067-.126-.1-.18-.153zM5.77 18.87h-.927c-.03-1.562-.123-3.03-.27-4.41h-.008l-1.41 4.41H2.45l-1.4-4.41h-.01c-.103 1.323-.168 2.793-.195 4.41H0c.055-1.966.192-3.81.41-5.53h1.15l1.335 4.064h.008L4.25 13.34h1.095c.242 2.015.384 3.86.428 5.53zm4.017-4.08c-.378 2.045-.876 3.533-1.492 4.46-.482.716-1.01 1.073-1.583 1.073-.153 0-.34-.046-.566-.138v-.494c.11.017.24.026.386.026.268 0 .483-.075.647-.222.197-.18.295-.382.295-.605 0-.155-.077-.47-.23-.944L6.23 14.79h.91l.727 2.36c.164.536.233.91.205 1.123.4-1.064.678-2.227.835-3.483h.88zM22.112 18.87h-2.63v-5.53h.885v4.85h1.745zM18.792 19.005l-1.016-.5c.09-.076.177-.158.255-.25.433-.506.648-1.258.648-2.253 0-1.83-.718-2.746-2.155-2.746-.704 0-1.254.232-1.65.697-.43.508-.646 1.256-.646 2.245 0 .972.19 1.686.574 2.14.35.41.877.615 1.583.615.264 0 .506-.033.725-.098l1.325.772.36-.622zM15.5 17.763c-.225-.36-.337-.94-.337-1.736 0-1.393.424-2.09 1.27-2.09.443 0 .77.167.977.5.224.362.336.936.336 1.723 0 1.404-.424 2.108-1.27 2.108-.445 0-.77-.167-.978-.5zM13.842 17.338c0 .47-.172.856-.516 1.156s-.803.45-1.384.45c-.543 0-1.064-.172-1.573-.515l.237-.476c.438.22.833.328 1.19.328.332 0 .593-.073.783-.22.188-.147.3-.354.3-.615 0-.33-.23-.61-.648-.845-.388-.213-1.163-.657-1.163-.657-.422-.307-.632-.636-.632-1.177 0-.45.157-.81.47-1.085.315-.278.72-.415 1.22-.415.512 0 .98.136 1.4.41l-.213.476c-.36-.152-.715-.23-1.064-.23-.283 0-.502.068-.654.206-.153.136-.248.31-.248.524 0 .328.234.61.666.85.393.215 1.187.67 1.187.67.433.305.648.63.648 1.168zM23.224 11.486c-.535-.014-.95.04-1.297.188-.1.04-.26.04-.274.167.055.053.063.14.11.214.08.134.218.313.346.407.14.11.28.216.427.31.26.16.555.255.81.416.145.094.293.213.44.313.073.05.12.14.214.172v-.02c-.046-.06-.06-.147-.105-.214-.067-.067-.134-.127-.2-.193-.194-.26-.435-.487-.695-.675-.214-.146-.682-.35-.77-.595l-.013-.014c.146-.013.32-.066.46-.106.227-.06.435-.047.67-.106.106-.027.213-.06.32-.094v-.06c-.12-.12-.21-.283-.334-.395-.34-.295-.717-.582-1.104-.823-.21-.134-.476-.22-.697-.334-.08-.04-.214-.06-.26-.127-.12-.146-.19-.34-.275-.514-.192-.368-.38-.775-.547-1.163-.12-.262-.193-.523-.34-.763-.69-1.137-1.437-1.826-2.586-2.5-.247-.14-.543-.2-.856-.274-.167-.008-.334-.02-.5-.027-.11-.047-.216-.174-.31-.235-.38-.24-1.364-.76-1.644-.072-.18.434.267.862.422 1.082.115.153.26.328.34.5.047.116.06.235.107.356.106.294.207.622.347.897.073.14.153.287.247.413.054.073.146.107.167.227-.094.136-.1.334-.154.5-.24.757-.146 1.693.194 2.25.107.166.362.534.703.393.3-.12.234-.5.32-.835.02-.08.007-.133.048-.187v.015c.094.188.188.367.274.555.206.328.566.668.867.895.16.12.287.328.487.402v-.02h-.015c-.043-.058-.1-.086-.154-.133-.12-.12-.255-.267-.35-.4-.28-.377-.527-.79-.747-1.218-.11-.21-.202-.436-.29-.643-.04-.08-.04-.2-.107-.24-.1.146-.247.273-.32.453-.127.288-.14.642-.188 1.01-.027.007-.014 0-.027.014-.214-.052-.287-.274-.367-.46-.2-.475-.233-1.238-.06-1.785.047-.14.247-.582.167-.716-.042-.127-.174-.2-.247-.303-.087-.124-.18-.285-.24-.427-.16-.374-.24-.788-.414-1.162-.08-.173-.22-.354-.334-.513-.127-.18-.267-.307-.368-.52-.033-.073-.08-.194-.027-.274.014-.054.042-.075.094-.09.088-.072.335.022.422.062.247.1.455.194.662.334.094.066.195.193.315.226h.14c.214.047.455.014.655.073.355.114.675.28.962.46.876.556 1.596 1.345 2.085 2.286.08.154.115.295.188.455.14.33.313.663.455.982.14.315.275.636.476.897.1.14.502.213.682.286.133.06.34.115.46.188.23.14.454.3.67.454.11.076.443.243.463.378z"/></symbol><symbol id="nodejs" viewBox="0 0 187.992 53.543"><path d="M29.045,28.493c0-0.542-0.285-1.04-0.753-1.309l-12.469-7.176c-0.211-0.124-0.447-0.188-0.687-0.198  c-0.021,0-0.111,0-0.129,0c-0.238,0.01-0.475,0.074-0.688,0.198L1.85,27.184c-0.465,0.269-0.754,0.767-0.754,1.309l0.027,19.322  c0,0.269,0.14,0.519,0.376,0.65c0.231,0.139,0.517,0.139,0.748,0l7.41-4.243c0.469-0.278,0.754-0.77,0.754-1.307v-9.027  c0-0.538,0.285-1.036,0.752-1.304l3.155-1.817c0.235-0.136,0.492-0.202,0.755-0.202c0.257,0,0.521,0.066,0.749,0.202l3.154,1.817  c0.467,0.268,0.753,0.766,0.753,1.304v9.027c0,0.537,0.289,1.031,0.755,1.307l7.408,4.243c0.232,0.139,0.523,0.139,0.753,0  c0.229-0.132,0.374-0.382,0.374-0.65L29.045,28.493z" fill="#333333"/><path d="M95.625,1.931c-0.233-0.13-0.518-0.127-0.749,0.008c-0.23,0.135-0.372,0.382-0.372,0.649v19.135  c0,0.188-0.101,0.362-0.263,0.456c-0.163,0.094-0.364,0.094-0.527,0l-3.123-1.799c-0.466-0.269-1.039-0.268-1.505,0.001  L76.612,27.58c-0.466,0.269-0.753,0.766-0.753,1.304v14.4c0,0.538,0.287,1.035,0.753,1.305l12.473,7.204  c0.466,0.269,1.04,0.269,1.507,0l12.475-7.204c0.466-0.27,0.753-0.767,0.753-1.305V7.389c0-0.546-0.295-1.049-0.772-1.315  L95.625,1.931z M94.468,38.554c0,0.134-0.072,0.259-0.188,0.326l-4.283,2.469c-0.116,0.067-0.26,0.067-0.376,0l-4.283-2.469  c-0.117-0.067-0.188-0.191-0.188-0.326v-4.945c0-0.134,0.072-0.259,0.188-0.326l4.283-2.474c0.117-0.067,0.26-0.067,0.377,0  l4.283,2.474c0.116,0.067,0.188,0.192,0.188,0.326L94.468,38.554L94.468,38.554z" fill="#333333"/><path d="M140.252,33.479c0.464-0.27,0.749-0.766,0.749-1.302v-3.49c0-0.537-0.286-1.033-0.75-1.303l-12.394-7.196  c-0.466-0.271-1.042-0.272-1.509-0.002l-12.469,7.199c-0.466,0.269-0.753,0.766-0.753,1.304v14.397c0,0.541,0.291,1.041,0.761,1.309  l12.392,7.061c0.457,0.261,1.017,0.264,1.477,0.008l7.495-4.166c0.238-0.132,0.386-0.382,0.387-0.653  c0.002-0.271-0.143-0.523-0.378-0.658l-12.548-7.202c-0.234-0.134-0.378-0.384-0.378-0.653V33.62c0-0.269,0.144-0.518,0.377-0.652  l3.905-2.252c0.232-0.134,0.52-0.134,0.752,0l3.907,2.252c0.233,0.134,0.377,0.383,0.377,0.652v3.55c0,0.27,0.144,0.519,0.377,0.653  c0.233,0.135,0.521,0.134,0.754-0.001L140.252,33.479z" fill="#333333"/><path d="M51.727,20.111c0.466-0.269,1.04-0.269,1.506,0l12.472,7.197c0.466,0.269,0.753,0.766,0.753,1.305v14.406  c0,0.538-0.287,1.035-0.753,1.305l-12.472,7.203c-0.466,0.269-1.041,0.269-1.507,0l-12.469-7.203  c-0.466-0.27-0.753-0.767-0.753-1.305V28.613c0-0.538,0.287-1.035,0.753-1.304L51.727,20.111z" fill="#80BD01"/><path d="M164.468,51.732c-0.43,0-0.857-0.112-1.233-0.33l-3.927-2.323c-0.586-0.328-0.3-0.444-0.107-0.512  c0.782-0.271,0.941-0.334,1.775-0.808c0.087-0.049,0.202-0.03,0.292,0.022l3.017,1.791c0.109,0.061,0.264,0.061,0.364,0  l11.761-6.788c0.109-0.063,0.18-0.188,0.18-0.318V28.894c0-0.133-0.07-0.257-0.183-0.324l-11.756-6.782  c-0.108-0.063-0.253-0.063-0.362,0l-11.753,6.784c-0.114,0.065-0.186,0.193-0.186,0.322v13.572c0,0.13,0.072,0.253,0.185,0.314  l3.222,1.861c1.748,0.874,2.818-0.155,2.818-1.189v-13.4c0-0.189,0.152-0.339,0.342-0.339h1.491c0.186,0,0.341,0.149,0.341,0.339  v13.4c0,2.333-1.27,3.671-3.482,3.671c-0.68,0-1.215,0-2.709-0.736l-3.084-1.775c-0.762-0.44-1.233-1.264-1.233-2.146V28.894  c0-0.882,0.472-1.705,1.233-2.144l11.761-6.796c0.744-0.421,1.733-0.421,2.472,0l11.76,6.796c0.762,0.44,1.235,1.262,1.235,2.144  v13.572c0,0.882-0.474,1.702-1.235,2.146l-11.76,6.79C165.33,51.62,164.904,51.732,164.468,51.732z" fill="#80BD01"/><path d="M168.101,42.382c-5.146,0-6.225-2.362-6.225-4.344c0-0.188,0.151-0.339,0.34-0.339h1.52  c0.17,0,0.311,0.122,0.338,0.288c0.229,1.548,0.914,2.329,4.026,2.329c2.478,0,3.532-0.561,3.532-1.875  c0-0.758-0.299-1.32-4.149-1.697c-3.218-0.318-5.208-1.029-5.208-3.604c0-2.373,2-3.788,5.354-3.788  c3.768,0,5.632,1.308,5.868,4.113c0.009,0.097-0.025,0.189-0.09,0.262c-0.064,0.067-0.154,0.108-0.249,0.108h-1.526  c-0.158,0-0.298-0.112-0.33-0.266c-0.366-1.629-1.257-2.149-3.673-2.149c-2.705,0-3.02,0.942-3.02,1.648  c0,0.855,0.371,1.104,4.023,1.588c3.614,0.478,5.331,1.154,5.331,3.694C173.964,40.914,171.828,42.382,168.101,42.382z" fill="#80BD01"/><path d="M126.919,32.805c0.089-0.052,0.2-0.052,0.289,0l2.394,1.381c0.089,0.052,0.145,0.147,0.145,0.251v2.764  c0,0.103-0.055,0.199-0.145,0.25l-2.394,1.381c-0.089,0.052-0.2,0.052-0.289,0l-2.392-1.381c-0.089-0.052-0.145-0.147-0.145-0.25  v-2.764c0-0.104,0.055-0.199,0.145-0.251L126.919,32.805z" fill="#80BD01"/><g><path d="M186.841,23.632c0,1.247-1.02,2.267-2.267,2.267c-1.235,0-2.267-1.007-2.267-2.267   c0-1.283,1.056-2.267,2.267-2.267C185.798,21.365,186.841,22.349,186.841,23.632z M182.674,23.626c0,1.056,0.852,1.907,1.895,1.907   c1.056,0,1.907-0.87,1.907-1.907c0-1.055-0.863-1.895-1.907-1.895C183.537,21.731,182.674,22.558,182.674,23.626z M183.723,22.361   h0.876c0.3,0,0.888,0,0.888,0.672c0,0.468-0.3,0.563-0.48,0.623c0.349,0.024,0.372,0.252,0.42,0.576   c0.024,0.204,0.061,0.552,0.132,0.671h-0.539c-0.013-0.12-0.097-0.768-0.097-0.803c-0.035-0.144-0.084-0.216-0.264-0.216h-0.443   v1.019h-0.492v-2.542H183.723z M184.203,23.476h0.396c0.323,0,0.384-0.228,0.384-0.359c0-0.348-0.24-0.348-0.372-0.348h-0.407   v0.707H184.203z" fill="#80BD01"/></g></symbol><symbol id="photoshop" viewBox="0 0 512 512"><g id="_x32_3_x2C__Photoshop_x2C__Adobe"><g><rect height="510.578" style="fill:#4FC7EC;" width="510.576" x="1.207" y="0.711"/><rect height="465.646" style="fill:#242238;" width="465.646" x="23.669" y="23.179"/><g><g><g><g id="XMLID_239_"><g><path d="M125.389,124.051c0-1.76,0.302-2.459,1.811-2.459         c11.48-0.354,34.144-0.703,57.105-0.703c59.215,0,81.802,34.454,82.104,75.205c0,55.848-41.623,77.024-86.033,77.024         c-8.459,0-16.616,0-18.734,0v79.795c0,2.108-0.601,2.813-2.114,2.813h-32.026c-1.509,0-2.114-0.704-2.114-2.459V124.051z          M161.643,239.047c2.42,0.35,6.95,0.699,19.642,0.699c23.864,0,46.826-6.801,46.826-41.929         c0-28.102-15.406-42.536-43.805-42.536c-11.783,0-20.243,0.35-22.663,0.704V239.047z" id="XMLID_240_" style="fill:#4FC7EC;"/></g></g><g id="XMLID_236_"><g><path d="M341.819,212.791c-14.549,0-18.405,9.099-18.405,15.773         c0,8.433,3.856,12.997,26.123,23.537c30.577,14.753,43.64,27.752,43.64,53.04c0,35.129-22.859,55.115-55.517,55.115         c-15.733,0-35.585-1.5-48.054-10.632c-1.188-0.704-1.782-1.756-1.782-3.516v-32.316c0-1.756,1.189-2.459,2.08-1.756         c15.436,11.592,32.652,14.886,48.088,14.886c13.658,0,18.406-9.103,18.406-16.829c0-9.133-3.299-14.404-24.675-24.59         c-30.577-14.754-43.306-27.432-43.306-53.074c0-28.455,21.337-51.958,56.368-51.958c18.107,0,30.871,0.485,39.186,6.102         c1.482,1.406,1.781,2.459,1.781,4.568v28.804c0,2.105-1.188,3.163-2.672,2.105         C372.393,215.028,357.255,212.791,341.819,212.791z" id="XMLID_237_" style="fill:#4FC7EC;"/></g></g></g></g></g></g></g><g id="Layer_1"/></symbol> <symbol id="photoshop-2" viewBox="0 0 128 128"><g><g><path fill="#001D26" d="M64,111.2C38,111.2,16.8,90,16.8,64S38,16.8,64,16.8S111.2,38,111.2,64S90,111.2,64,111.2z"/><path fill="#31C5F0" d="M64,19.7c24.4,0,44.3,19.9,44.3,44.3S88.4,108.3,64,108.3S19.7,88.4,19.7,64S39.6,19.7,64,19.7 M64,14    c-27.6,0-50,22.4-50,50s22.4,50,50,50s50-22.4,50-50S91.6,14,64,14L64,14z"/></g><path fill="#31C5F0" d="M80.5,59.3c-2.8,0-3.8,1.4-3.8,2.6c0,1.3,0.6,2.2,4.4,4.1c5.6,2.7,7.4,5.3,7.4,9.1c0,5.7-4.4,8.8-10.3,8.8   c-3.1,0-5.8-0.6-7.3-1.5c-0.2-0.1-0.3-0.3-0.3-0.6v-5.2c0-0.4,0.2-0.5,0.4-0.3c2.2,1.5,4.8,2.1,7.2,2.1c2.8,0,4-1.2,4-2.8   c0-1.3-0.8-2.4-4.4-4.3c-5.1-2.4-7.2-4.9-7.2-9c0-4.6,3.6-8.4,9.9-8.4c3.1,0,5.2,0.5,6.4,1c0.3,0.2,0.4,0.5,0.4,0.7v4.9   c0,0.3-0.2,0.5-0.5,0.4C85.2,59.9,82.9,59.3,80.5,59.3L80.5,59.3z M49.8,63.6c0.8,0.1,1.5,0.1,2.9,0.1c4.2,0,8.1-1.5,8.1-7.1   c0-4.5-2.8-6.8-7.6-6.8c-1.4,0-2.8,0.1-3.4,0.1V63.6z M43.5,44.6c0-0.2,0.5-0.4,0.8-0.4c2.3-0.1,5.7-0.2,9.2-0.2   c9.9,0,13.7,5.4,13.7,12.4c0,9.1-6.6,13-14.6,13c-1.4,0-1.8-0.1-2.8-0.1V83c0,0.3-0.1,0.4-0.4,0.4h-5.5c-0.3,0-0.4-0.1-0.4-0.4   L43.5,44.6L43.5,44.6z"/></g></symbol> <symbol id="php" viewBox="0 0 512 512"><g id="_x32_56-php"><g><g><path d="M256.001,147.109c123.192,0,217.923,51.893,217.923,108.89S379.12,364.89,256.001,364.89     c-123.194,0-217.925-51.894-217.925-108.891S132.878,147.109,256.001,147.109 M256.001,135.034     c-127.004,0-230,54.121-230,120.965s102.996,120.967,230,120.967c127.003,0,229.998-54.123,229.998-120.967     S383.004,135.034,256.001,135.034z M182.831,246.296c-5.677,29.109-25.73,26.09-50.384,26.09l9.847-50.744     C169.607,221.643,188.15,218.696,182.831,246.296L182.831,246.296z M96.007,323.776h26.378l6.254-32.199     c29.54,0,47.867,2.157,64.83-13.728c18.759-17.251,23.646-47.941,10.278-63.322c-6.971-8.05-18.185-12.003-33.421-12.003H119.51     L96.007,323.776z M229.478,170.253h26.235l-6.254,32.199c22.64,0,43.628-1.653,53.763,7.691     c10.638,9.775,5.535,22.281-5.966,81.291h-26.594c11.069-57.068,13.154-61.812,9.128-66.125     c-3.88-4.168-12.722-3.306-34.068-3.306l-13.513,69.431h-26.234L229.478,170.253L229.478,170.253z M388.969,246.296     c-5.751,29.542-26.379,26.09-50.385,26.09l9.847-50.744C375.887,221.643,394.287,218.696,388.969,246.296z M302.145,323.776     h26.449l6.254-32.199c31.049,0,48.227,1.796,64.83-13.728c18.759-17.251,23.646-47.941,10.279-63.322     c-6.974-8.05-18.186-12.003-33.423-12.003h-50.816L302.145,323.776z" style="fill:#007AFF;"/></g></g></g><g id="Layer_1"/></symbol><symbol id="react" viewBox="0 0 128 128"><g fill="#61DAFB"><circle cx="64" cy="47.5" r="9.3"/><path d="M64 81.7c7.3 7.1 14.5 11.3 20.3 11.3 1.9 0 3.7-.4 5.2-1.3 5.2-3 7.1-10.5 5.3-21.2-.3-1.9-.7-3.8-1.2-5.8 2-.6 3.8-1.2 5.6-1.8 10.1-3.9 15.7-9.3 15.7-15.2 0-6-5.6-11.4-15.7-15.2-1.8-.7-3.6-1.3-5.6-1.8.5-2 .9-3.9 1.2-5.8 1.7-10.9-.2-18.5-5.4-21.5-1.5-.9-3.3-1.3-5.2-1.3-5.7 0-13 4.2-20.3 11.3-7.2-7.1-14.4-11.3-20.2-11.3-1.9 0-3.7.4-5.2 1.3-5.2 3-7.1 10.5-5.3 21.2.3 1.9.7 3.8 1.2 5.8-2 .6-3.8 1.2-5.6 1.8-10.1 3.9-15.7 9.3-15.7 15.2 0 6 5.6 11.4 15.7 15.2 1.8.7 3.6 1.3 5.6 1.8-.5 2-.9 3.9-1.2 5.8-1.7 10.7.2 18.3 5.3 21.2 1.5.9 3.3 1.3 5.2 1.3 5.8.2 13-4 20.3-11zm-5.6-13.5c1.8.1 3.7.1 5.6.1 1.9 0 3.8 0 5.6-.1-1.8 2.4-3.7 4.6-5.6 6.7-1.9-2.1-3.8-4.3-5.6-6.7zm-12.4-10.3c1 1.7 1.9 3.3 3 4.9-3.1-.4-6-.9-8.8-1.5.9-2.7 1.9-5.5 3.1-8.3.8 1.6 1.7 3.3 2.7 4.9zm-5.8-24.1c2.8-.6 5.7-1.1 8.8-1.5-1 1.6-2 3.2-3 4.9-1 1.7-1.9 3.3-2.7 5-1.3-2.9-2.3-5.7-3.1-8.4zm5.5 13.7c1.3-2.7 2.7-5.4 4.3-8.1 1.5-2.6 3.2-5.2 4.9-7.8 3-.2 6-.3 9.1-.3 3.2 0 6.2.1 9.1.3 1.8 2.6 3.4 5.2 4.9 7.8 1.6 2.7 3 5.4 4.3 8.1-1.3 2.7-2.7 5.4-4.3 8.1-1.5 2.6-3.2 5.2-4.9 7.8-3 .2-6 .3-9.1.3-3.2 0-6.2-.1-9.1-.3-1.8-2.6-3.4-5.2-4.9-7.8-1.6-2.7-3-5.4-4.3-8.1zm39.1-5.4l-2.7-5c-1-1.7-1.9-3.3-3-4.9 3.1.4 6 .9 8.8 1.5-.9 2.8-1.9 5.6-3.1 8.4zm0 10.8c1.2 2.8 2.2 5.6 3.1 8.3-2.8.6-5.7 1.1-8.8 1.5 1-1.6 2-3.2 3-4.9.9-1.5 1.8-3.2 2.7-4.9zm2.3 34.7c-.8.5-1.8.7-2.9.7-4.9 0-11-4-17-10 2.9-3.1 5.7-6.6 8.5-10.5 4.7-.4 9.2-1.1 13.4-2.1.5 1.8.8 3.6 1.1 5.4 1.4 8.5.3 14.6-3.1 16.5zm5.2-52.7c11.2 3.2 17.9 8.1 17.9 12.6 0 3.9-4.6 7.8-12.7 10.9-1.6.6-3.4 1.2-5.2 1.7-1.3-4.1-2.9-8.3-4.9-12.6 2-4.3 3.7-8.5 4.9-12.6zm-8-28.2c1.1 0 2 .2 2.9.7 3.3 1.9 4.5 7.9 3.1 16.5-.3 1.7-.7 3.5-1.1 5.4-4.2-.9-8.7-1.6-13.4-2.1-2.7-3.9-5.6-7.4-8.5-10.5 6-5.9 12.1-10 17-10zm-14.7 20.1c-1.8-.1-3.7-.1-5.6-.1s-3.8 0-5.6.1c1.8-2.4 3.7-4.6 5.6-6.7 1.9 2.1 3.8 4.4 5.6 6.7zm-28.7-19.4c.8-.5 1.8-.7 2.9-.7 4.9 0 11 4 17 10-2.9 3.1-5.7 6.6-8.5 10.5-4.7.4-9.2 1.1-13.4 2.1-.5-1.8-.8-3.6-1.1-5.4-1.4-8.5-.3-14.5 3.1-16.5zm-5.2 52.7c-11.2-3.2-17.9-8.1-17.9-12.6 0-3.9 4.6-7.8 12.7-10.9 1.6-.6 3.4-1.2 5.2-1.7 1.3 4.1 2.9 8.3 4.9 12.6-2 4.3-3.7 8.6-4.9 12.6zm2.1 11c.3-1.7.7-3.5 1.1-5.4 4.2.9 8.7 1.6 13.4 2.1 2.7 3.9 5.6 7.4 8.5 10.5-6 5.9-12.1 10-17 10-1.1 0-2-.2-2.9-.7-3.4-1.9-4.5-8-3.1-16.5zM33.6 112.3c2.2-2.7 2.3-5.7 1.1-8.7-1.2-3-3.7-4.4-6.8-4.5-3.7-.1-7.5 0-11.2 0h-.7v25.9h3v-9.8h4.7c.6 0 1.1.2 1.4.7l6 9.3c.1.2.4.5.6.5h3.9c-2.4-3.7-4.7-7.2-7.1-10.8 2.1-.3 3.9-1 5.1-2.6zm-14.6-.2v-9.9h1.1c2.3 0 4.7-.1 7 .1 2.7.1 4.6 2.2 4.6 4.9s-2.2 4.8-4.9 4.9c-2.4.1-4.8 0-7.8 0zM57.7 113.4c-1.6-7-8-8.8-12.9-6.6-3.8 1.7-5.5 5-5.6 9.1-.1 3.1.8 5.9 3.2 8 2.7 2.4 6 2.7 9.4 2.1 1.9-.4 3.6-1.3 4.9-2.7-.5-.7-1-1.4-1.5-2-2.8 2.4-5.9 3.2-9.3 1.6-2.2-1.1-3.3-3.8-3.5-5.8h15.5v-1.3c.1-.9 0-1.7-.2-2.4zm-15.1 1.6c-.3-3 2.7-6.2 6-6.2 3.8-.1 6.2 2.2 6.3 6.2h-12.3zM73.3 106.3c-1.5-.3-3.1-.4-4.6-.3-2.4.2-4.5 1.3-6.2 3.1.5.7.9 1.4 1.5 2.2.2-.2.4-.4.6-.5 1.6-1.5 3.5-2.3 5.8-2.1 1.8.1 3.5.7 4 2.5.4 1.4.3 2.9.4 4.4-.3 0-.4-.1-.5-.2-2.4-2-5.1-2.4-8-1.7-2.7.7-4.4 2.8-4.6 5.5-.2 3.1 1.2 5.4 3.9 6.5 1.7.7 3.6.7 5.4.3 1.4-.3 2-1.1 4-2.2v1.3h2.8c0-4 .1-8.9 0-13.5 0-2.9-1.7-4.7-4.5-5.3zm1.4 12.6c-.1.3 0 .6 0 .9 0 2.1-.5 2.8-2.5 3.6-1.4.5-2.9.7-4.4.2-1.7-.5-2.9-2-2.9-3.7-.1-1.7 1-3.4 2.7-3.9 2.3-.8 4.4-.3 6.3 1.1.6.5 1 1 .8 1.8zM90.3 109c2.6-.8 5-.3 6.8 1.9l.3.2c.7-.6 1.3-1.2 2.1-1.9-.3-.3-.4-.5-.6-.8-2.9-3.1-8.6-3.5-12.1-1-4.9 3.6-4.8 10.6-2.4 14.3 2.3 3.5 5.6 4.7 9.5 4.2 2.3-.3 4.2-1.4 5.7-3.3-.7-.6-1.4-1.2-2.1-1.9-.2.2-.3.3-.4.5-2.7 3-7.2 2.7-9.6-.5-1.4-1.9-1.7-4.1-1.3-6.3.2-2.5 1.5-4.5 4.1-5.4zM111.1 122.6c-.2.1-.3.2-.3.2-.8.6-1.6.7-2.5.4-.9-.4-1-1.2-1.1-2v-11.4c0-.2 0 .2.1-.8h3.8v-3h-4v-5h-3v5.4h-2.6c-.2 0-.5.2-.5.4-.1.7 0 1.2 0 2.2h3.2v12.799999999999999c0 1.6.4 3 1.8 3.8 1.5.9 4.4.7 5.7-.4.2-.1.3-.5.3-.6-.3-.6-.6-1.3-.9-2z"/></g></symbol><symbol id="sass" viewBox="0 0 512 512"><g id="_x32_88-sass"><g><g><path d="M422.009,281.793c-16.096,0.071-30.035,3.952-41.675,9.701c-4.24-8.553-8.624-16.025-9.343-21.629     c-0.86-6.54-1.796-10.419-0.789-18.179c1.007-7.762,5.532-18.756,5.461-19.545c-0.071-0.79-1.006-4.743-10.275-4.815     c-9.269-0.071-17.244,1.796-18.179,4.239c-0.936,2.443-2.73,7.977-3.808,13.725c-1.653,8.407-18.54,38.443-28.097,54.107     c-3.161-6.106-5.819-11.497-6.395-15.808c-0.862-6.54-1.796-10.419-0.79-18.179c1.006-7.762,5.532-18.756,5.46-19.545     c-0.072-0.79-1.006-4.743-10.274-4.815c-9.27-0.071-17.244,1.796-18.18,4.24c-0.934,2.442-1.94,8.191-3.808,13.726     c-1.867,5.53-24.359,55.541-30.251,68.548c-3.019,6.609-5.604,11.927-7.473,15.521c-0.286,0.574-0.502,0.934-0.646,1.222     c0.215-0.359,0.36-0.72,0.36-0.574c-1.581,3.088-2.516,4.813-2.516,4.813v0.071c-1.222,2.299-2.587,4.382-3.233,4.382     c-0.432,0-1.365-6.034,0.216-14.298c3.376-17.389,11.352-44.404,11.28-45.34c-0.072-0.503,1.508-5.173-5.246-7.689     c-6.538-2.371-8.91,1.582-9.484,1.582s-1.006,1.438-1.006,1.438s7.258-30.467-13.94-30.467     c-13.221,0-31.615,14.516-40.668,27.665c-5.677,3.09-17.965,9.772-30.898,16.885c-4.958,2.731-10.06,5.532-14.874,8.192     c-0.359-0.361-0.647-0.72-1.006-1.079c-25.724-27.447-73.22-46.848-71.207-83.711c0.718-13.437,5.389-48.716,91.327-91.542     c70.418-35.065,126.751-25.436,136.453-4.024c13.938,30.539-30.109,87.376-103.256,95.566     c-27.88,3.09-42.537-7.688-46.202-11.711c-3.809-4.239-4.384-4.456-5.821-3.665c-2.372,1.293-0.862,5.03,0,7.257     c2.156,5.676,11.137,15.736,26.443,20.766c13.435,4.383,46.13,6.827,85.649-8.479c44.406-17.102,78.969-64.742,68.837-104.62     C303.809,85.2,236.625,71.906,173.034,94.468c-37.867,13.437-78.824,34.563-108.285,62.082     c-34.993,32.767-40.597,61.292-38.299,73.221c8.192,42.321,66.537,69.914,89.89,90.32c-1.15,0.647-2.228,1.222-3.233,1.797     c-11.712,5.819-56.19,29.1-67.328,53.677c-12.573,27.879,2.083,47.853,11.712,50.585c30.035,8.334,60.789-6.683,77.316-31.33     c16.525-24.645,14.514-56.836,6.898-71.495c-0.073-0.215-0.216-0.357-0.287-0.575c3.017-1.795,6.106-3.592,9.197-5.388     c5.963-3.521,11.784-6.756,16.885-9.556c-2.875,7.761-4.958,17.098-6.036,30.609c-1.293,15.807,5.246,36.286,13.725,44.334     c3.735,3.521,8.262,3.594,11.065,3.594c9.916,0,14.37-8.193,19.328-17.965c6.108-11.93,11.497-25.798,11.497-25.798     s-6.754,37.511,11.712,37.511c6.754,0,13.51-8.695,16.526-13.15v0.071c0,0,0.145-0.286,0.504-0.86     c0.718-1.079,1.077-1.726,1.077-1.726v-0.217c2.73-4.67,8.695-15.377,17.675-33.052c11.642-22.851,22.778-51.378,22.778-51.378     s1.006,6.972,4.457,18.54c2.011,6.826,6.25,14.299,9.627,21.557c-2.729,3.736-4.383,5.892-4.383,5.892s0,0.071,0.07,0.143     c-2.155,2.876-4.597,5.966-7.112,8.984c-9.198,10.921-20.12,23.425-21.556,27.017c-1.726,4.24-1.294,7.399,2.012,9.844     c2.442,1.869,6.754,2.155,11.28,1.797c8.264-0.577,14.084-2.587,16.886-3.883c4.454-1.578,9.629-4.095,14.515-7.615     c8.982-6.609,14.444-16.094,13.939-28.597c-0.287-6.898-2.516-13.797-5.246-20.262c0.791-1.151,1.654-2.374,2.444-3.593     c14.229-20.769,25.222-43.544,25.222-43.544s1.006,6.968,4.454,18.537c1.725,5.821,5.102,12.216,8.191,18.466     c-13.365,10.851-21.627,23.427-24.502,31.688c-5.318,15.306-1.15,22.202,6.682,23.786c3.521,0.718,8.551-0.936,12.288-2.517     c4.67-1.581,10.275-4.096,15.52-7.976c8.982-6.609,17.677-15.88,17.103-28.454c-0.217-5.677-1.797-11.353-3.881-16.814     c11.28-4.741,25.941-7.33,44.622-5.173c40.023,4.67,47.854,29.675,46.345,40.093c-1.507,10.492-9.914,16.241-12.717,17.965     c-2.804,1.725-3.665,2.372-3.448,3.665c0.358,1.868,1.651,1.797,4.022,1.364c3.307-0.574,20.982-8.479,21.771-27.808     C487.108,308.45,463.613,281.578,422.009,281.793L422.009,281.793z M113.538,385.766c-13.22,14.443-31.759,19.904-39.734,15.305     c-8.551-4.956-5.174-26.226,11.137-41.604c9.916-9.34,22.706-17.962,31.185-23.279c1.94-1.149,4.743-2.874,8.192-4.958     c0.575-0.357,0.862-0.502,0.862-0.502c0.646-0.433,1.365-0.791,2.084-1.223C133.226,351.349,127.478,370.605,113.538,385.766     L113.538,385.766z M210.111,320.091c-4.599,11.28-14.3,40.023-20.19,38.514c-5.03-1.294-8.121-23.209-1.006-44.764     c3.592-10.851,11.208-23.784,15.736-28.813c7.256-8.121,15.232-10.708,17.101-7.474     C224.266,281.793,212.984,313.05,210.111,320.091L210.111,320.091z M289.868,358.176c-1.939,1.005-3.736,1.651-4.598,1.148     c-0.646-0.359,0.791-1.725,0.791-1.725s9.986-10.706,13.939-15.594c2.299-2.873,4.957-6.251,7.832-9.986     c0,0.357,0.07,0.719,0.07,1.148C307.833,346.031,295.474,354.727,289.868,358.176z M351.377,344.163     c-1.437-1.006-1.223-4.383,3.592-14.875c1.869-4.096,6.181-10.993,13.652-17.604c0.863,2.73,1.365,5.316,1.365,7.759     C369.913,335.611,358.346,341.647,351.377,344.163L351.377,344.163z" style="fill:#CF649A;"/></g></g></g></symbol><symbol id="slack" viewBox="0 0 512 512"><g id="_x33_06-slack"><g><path d="M122.643,316.682c0,26.596-21.727,48.323-48.321,48.323c-26.593,0-48.319-21.728-48.319-48.323    c0-26.592,21.727-48.318,48.319-48.318h48.321V316.682z" style="fill:#E01E5A;"/><path d="M146.996,316.682c0-26.592,21.728-48.318,48.321-48.318c26.593,0,48.32,21.727,48.32,48.318V437.68    c0,26.592-21.728,48.319-48.32,48.319c-26.594,0-48.321-21.728-48.321-48.319V316.682z" style="fill:#E01E5A;"/><path d="M195.317,122.643c-26.594,0-48.321-21.728-48.321-48.321c0-26.593,21.728-48.32,48.321-48.32    c26.593,0,48.32,21.728,48.32,48.32v48.321H195.317L195.317,122.643z" style="fill:#36C5F0;"/><path d="M195.317,146.997c26.593,0,48.32,21.727,48.32,48.321c0,26.593-21.728,48.318-48.32,48.318H74.321    c-26.593,0-48.319-21.726-48.319-48.318c0-26.595,21.727-48.321,48.319-48.321H195.317L195.317,146.997z" style="fill:#36C5F0;"/><path d="M389.359,195.318c0-26.595,21.725-48.321,48.32-48.321c26.593,0,48.318,21.727,48.318,48.321    c0,26.593-21.726,48.318-48.318,48.318h-48.32V195.318L389.359,195.318z" style="fill:#2EB67D;"/><path d="M365.004,195.318c0,26.593-21.728,48.318-48.321,48.318c-26.593,0-48.32-21.726-48.32-48.318    V74.321c0-26.593,21.728-48.32,48.32-48.32c26.594,0,48.321,21.728,48.321,48.32V195.318L365.004,195.318z" style="fill:#2EB67D;"/><path d="M316.683,389.358c26.594,0,48.321,21.727,48.321,48.321c0,26.592-21.728,48.319-48.321,48.319    c-26.593,0-48.32-21.728-48.32-48.319v-48.321H316.683z" style="fill:#ECB22E;"/><path d="M316.683,365.005c-26.593,0-48.32-21.728-48.32-48.323c0-26.592,21.728-48.318,48.32-48.318H437.68    c26.593,0,48.318,21.727,48.318,48.318c0,26.596-21.726,48.323-48.318,48.323H316.683z" style="fill:#ECB22E;"/></g></g><g id="Layer_1"/></symbol><symbol id="vscode" viewBox="0 0 24 24"><path d="M.228 8.37s-.584-.427.117-.995L1.98 5.897s.467-.497.962-.064l15.081 11.542v5.534s-.007.87-1.11.774L.227 8.369Z" fill="#22a6f1" class="fill-000000"></path><path d="M4.116 11.937.228 15.509s-.4.3 0 .837l1.805 1.66s.429.465 1.062-.065l4.121-3.158-3.1-2.846ZM10.94 11.966l7.13-5.502-.047-5.505s-.305-1.202-1.32-.576L7.216 9.11l3.724 2.856Z" fill="#22a6f1" class="fill-000000"></path><path d="M16.912 23.69c.414.428.916.288.916.288l5.556-2.767c.711-.49.611-1.098.611-1.098V3.588c0-.726-.735-.977-.735-.977L18.444.264c-1.052-.657-1.741.119-1.741.119s.886-.645 1.32.576v21.85c0 .15-.032.297-.095.43-.127.259-.402.5-1.062.4l.046.051Z" fill="#22a6f1" class="fill-000000"></path></symbol> <symbol id="wordpress" viewBox="0 0 128 128"><g id="_x32__stroke"><g id="Wordpress_1_"><rect clip-rule="evenodd" fill="none" fill-rule="evenodd" height="128" width="128"/><path clip-rule="evenodd" d="M65.123,69.595l-19.205,55.797    c5.736,1.688,11.8,2.608,18.081,2.608c7.452,0,14.6-1.288,21.253-3.628c-0.168-0.276-0.328-0.564-0.456-0.88L65.123,69.595z     M120.16,33.294c0.276,2.04,0.432,4.224,0.432,6.58c0,6.492-1.216,13.792-4.868,22.924l-19.549,56.517    C115.204,108.223,128,87.606,128,63.998C128,52.87,125.156,42.41,120.16,33.294z M107.204,60.769    c0-7.912-2.844-13.388-5.276-17.648c-3.244-5.276-6.288-9.74-6.288-15.012c0-5.884,4.46-11.36,10.748-11.36    c0.284,0,0.552,0.036,0.828,0.052C95.832,6.368,80.659,0,63.999,0C41.638,0,21.969,11.472,10.525,28.844    c1.504,0.048,2.92,0.076,4.12,0.076c6.692,0,17.057-0.812,17.057-0.812c3.448-0.204,3.856,4.868,0.408,5.272    c0,0-3.468,0.408-7.324,0.612l23.305,69.321l14.008-42.005L52.13,33.992c-3.448-0.204-6.716-0.612-6.716-0.612    c-3.448-0.204-3.044-5.476,0.408-5.272c0,0,10.568,0.812,16.857,0.812c6.692,0,17.057-0.812,17.057-0.812    c3.452-0.204,3.856,4.868,0.408,5.272c0,0-3.472,0.408-7.324,0.612l23.129,68.793l6.388-21.328    C105.096,72.601,107.204,66.245,107.204,60.769z M0,63.997c0,25.332,14.72,47.225,36.069,57.597L5.54,37.952    C1.992,45.909,0,54.717,0,63.997z" fill="#00759D" fill-rule="evenodd" id="Wordpress"/></g></g></symbol> </svg>