<?xml version="1.0"?>
<svg version="1.1" xmlns="http://www.w3.org/2000/svg" width="266px" height="36px" style=""><path fill="#" d="M9.36,15q-3.39,0-5.82,2.43q-2.46,2.46-2.46,5.85l0,4.53q0,3.33,2.46,5.79t5.82,2.46q3.39,0,5.85-2.46q2.43-2.43,2.43-5.79l0-4.53q0-3.42-2.43-5.85t-5.85-2.43z M15.78,23.28l0,4.53q0,2.73-1.92,4.59q-1.89,1.8-4.5,1.8t-4.47-1.8q-1.92-1.86-1.92-4.59l0-4.53q0-2.52,1.92-4.5q1.92-1.92,4.47-1.92q2.52,0,4.5,1.92q1.92,1.98,1.92,4.5z M22.3152,36.06l14.67,0l0-1.53l-12.81,0l0-19.53l-1.86,0l0,21.06z M42.2304,30.24q0-1.44,1.02-2.61q1.02-1.23,2.46-1.23l0.39,0l5.61,0l0-1.86l-5.61,0l-0.39,0q-1.53-0.3-2.505-1.32t-0.975-2.43q0-1.77,1.035-2.805t2.835-1.035l10.2,0l0-1.89l-10.2,0q-2.31,0-4.02,1.71q-1.71,1.65-1.71,4.02q0,1.5,0.57,2.73t1.68,1.77q-1.11,0.81-1.68,2.13t-0.57,2.82q0,2.34,1.71,3.99q1.74,1.74,4.02,1.74l10.2,0l0-1.98l-10.2,0q-1.8,0-2.835-1.02t-1.035-2.73z M73.6356,36l3.03,0l-13.41-10.71l13.41-10.32l-3.03,0l-11.52,9.18l0-9.18l-1.89,0l0,21.03l1.89,0l0-9.18z M85.7208,17.19l11.31,0l0-2.28l-11.31,0q-2.22,0-3.72,1.74q-1.53,1.77-1.53,4.29q0,2.28,1.53,3.96q1.5,1.71,3.72,1.71l3,0l3.06,0q1.35,0,2.4,1.14q0.99,1.2,0.99,2.61q0,1.68-0.975,2.73t-2.415,1.05l-11.31,0l0,1.86l11.31,0q2.25,0,3.75-1.56t1.5-4.08q0-2.28-1.5-3.96q-1.53-1.68-3.75-1.68l-3.06,0l-3,0q-1.38,0-2.37-1.2q-1.02-1.11-1.02-2.58q0-1.68,0.975-2.715t2.415-1.035z M101.436,36.03l1.89,0l0-21.09l-1.89,0l0,21.09z M108.1212,36.03l1.89,0l0-21.09l-1.89,0l0,21.09z  M129.6216,17.19l11.31,0l0-2.28l-11.31,0q-2.22,0-3.72,1.74q-1.53,1.77-1.53,4.29q0,2.28,1.53,3.96q1.5,1.71,3.72,1.71l3,0l3.06,0q1.35,0,2.4,1.14q0.99,1.2,0.99,2.61q0,1.68-0.975,2.73t-2.415,1.05l-11.31,0l0,1.86l11.31,0q2.25,0,3.75-1.56t1.5-4.08q0-2.28-1.5-3.96q-1.53-1.68-3.75-1.68l-3.06,0l-3,0q-1.38,0-2.37-1.2q-1.02-1.11-1.02-2.58q0-1.68,0.975-2.715t2.415-1.035z M160.6368,15l-16.26,0l0,1.83l7.38,0l0,19.23l1.86,0l0-19.23l7.02,0l0-1.83z M173.502,25.47l2.25,0q2.28,0,3.78-1.5t1.5-3.78q0-2.01-1.5-3.6q-1.59-1.65-3.78-1.65l-9.39,0l-1.86,0l0,21.06l1.86,0l0-10.53l4.89,0l6.39,10.53l2.25,0z M166.362,23.61l0-6.78l9.39,0q1.38,0,2.43,0.99q0.99,0.99,0.99,2.37q0,1.44-0.99,2.43q-1.05,0.99-2.43,0.99l-9.39,0z M193.5072,15q-3.39,0-5.82,2.43q-2.46,2.46-2.46,5.85l0,4.53q0,3.33,2.46,5.79t5.82,2.46q3.39,0,5.85-2.46q2.43-2.43,2.43-5.79l0-4.53q0-3.42-2.43-5.85t-5.85-2.43z M199.9272,23.28l0,4.53q0,2.73-1.92,4.59q-1.89,1.8-4.5,1.8t-4.47-1.8q-1.92-1.86-1.92-4.59l0-4.53q0-2.52,1.92-4.5q1.92-1.92,4.47-1.92q2.52,0,4.5,1.92q1.92,1.98,1.92,4.5z M219.7524,36l3.03,0l-13.41-10.71l13.41-10.32l-3.03,0l-11.52,9.18l0-9.18l-1.89,0l0,21.03l1.89,0l0-9.18z M234.8676,14.88q-3.36,0-5.64,2.43q-2.25,2.4-2.25,5.85l0,12.84l1.89,0l0-9.42l12.06,0l0,9.42l1.89,0l0-12.84q0-3.45-2.25-5.85q-2.34-2.43-5.7-2.43z M240.9276,24.72l-12.06,0l0-1.56q0-2.58,1.74-4.47q1.77-1.92,4.26-1.92t4.32,1.92q1.74,1.89,1.74,4.47l0,1.56z M247.3728,36l1.86,0l0-12.72q0-2.52,1.92-4.5q1.92-1.92,4.44-1.92t4.5,1.92q1.92,1.98,1.92,4.5l0,12.72l1.86,0l0-12.72q0-3.42-2.43-5.85t-5.85-2.43q-3.36,0-5.79,2.43t-2.43,5.85l0,12.72z"/><path fill="#" d=""/></svg>
