<?xml version="1.0" encoding="UTF-8"?>
<svg overflow="visible" baseProfile="tiny" version="1.2" viewBox="0 0 266 24" xml:space="preserve" xmlns="http://www.w3.org/2000/svg">
<path d="m8.38 1.1c-2.29 0-4.25 0.81-5.89 2.43-1.66 1.64-2.49 3.59-2.49 5.85v4.53c0 2.22 0.83 4.15 2.49 5.79s3.62 2.46 5.89 2.46c2.29 0 4.26-0.82 5.92-2.46 1.64-1.62 2.46-3.55 2.46-5.79v-4.53c0-2.28-0.82-4.23-2.46-5.85s-3.61-2.43-5.92-2.43zm6.5 8.28v4.53c0 1.82-0.65 3.35-1.94 4.59-1.28 1.2-2.79 1.8-4.55 1.8s-3.27-0.6-4.52-1.8c-1.3-1.24-1.94-2.77-1.94-4.59v-4.53c0-1.68 0.65-3.18 1.94-4.5 1.3-1.28 2.8-1.92 4.52-1.92 1.7 0 3.22 0.64 4.55 1.92 1.29 1.32 1.94 2.82 1.94 4.5zm6.61 12.78h14.85v-1.53h-12.96v-19.53h-1.88c-0.01 0-0.01 21.06-0.01 21.06zm20.16-5.82c0-0.96 0.34-1.83 1.03-2.61 0.69-0.82 1.52-1.23 2.49-1.23h6.07v-1.86h-6.07c-1.03-0.2-1.88-0.64-2.54-1.32s-0.99-1.49-0.99-2.43c0-1.18 0.35-2.12 1.05-2.81s1.65-1.03 2.87-1.03h10.32v-1.89h-10.31c-1.56 0-2.92 0.57-4.07 1.71-1.15 1.1-1.73 2.44-1.73 4.02 0 1 0.19 1.91 0.58 2.73s0.95 1.41 1.7 1.77c-0.75 0.54-1.32 1.25-1.7 2.13s-0.58 1.82-0.58 2.82c0 1.56 0.58 2.89 1.73 3.99 1.17 1.16 2.53 1.74 4.07 1.74h10.32v-1.98h-10.32c-1.21 0-2.17-0.34-2.87-1.02s-1.05-1.59-1.05-2.73zm31.79 5.76h3.07l-13.58-10.71 13.58-10.32h-3.07l-11.66 9.18v-9.18h-1.91v21.03h1.91v-9.18l11.66 9.18zm12.23-18.81h11.45v-2.28h-11.45c-1.5 0-2.75 0.58-3.77 1.74-1.03 1.18-1.55 2.61-1.55 4.29 0 1.52 0.52 2.84 1.55 3.96 1.01 1.14 2.27 1.71 3.77 1.71h6.14c0.91 0 1.72 0.38 2.43 1.14 0.67 0.8 1 1.67 1 2.61 0 1.12-0.33 2.03-0.99 2.73s-1.47 1.05-2.44 1.05h-11.45v1.86h11.45c1.52 0 2.78-0.52 3.8-1.56 1.01-1.04 1.52-2.4 1.52-4.08 0-1.52-0.51-2.84-1.52-3.96-1.03-1.12-2.3-1.68-3.8-1.68h-6.14c-0.93 0-1.73-0.4-2.4-1.2-0.69-0.74-1.03-1.6-1.03-2.58 0-1.12 0.33-2.03 0.99-2.72 0.66-0.68 1.47-1.03 2.44-1.03zm15.91 18.84h1.91v-21.09h-1.91v21.09zm6.77 0h1.91v-21.09h-1.91v21.09zm21.76-18.84h11.45v-2.28h-11.45c-1.5 0-2.75 0.58-3.77 1.74-1.03 1.18-1.55 2.61-1.55 4.29 0 1.52 0.52 2.84 1.55 3.96 1.01 1.14 2.27 1.71 3.77 1.71h6.14c0.91 0 1.72 0.38 2.43 1.14 0.67 0.8 1 1.67 1 2.61 0 1.12-0.33 2.03-0.99 2.73s-1.47 1.05-2.44 1.05h-11.45v1.86h11.45c1.52 0 2.78-0.52 3.8-1.56 1.01-1.04 1.52-2.4 1.52-4.08 0-1.52-0.51-2.84-1.52-3.96-1.03-1.12-2.3-1.68-3.8-1.68h-6.14c-0.93 0-1.73-0.4-2.4-1.2-0.69-0.74-1.03-1.6-1.03-2.58 0-1.12 0.33-2.03 0.99-2.72 0.65-0.68 1.47-1.03 2.44-1.03zm31.39-2.19h-16.46v1.83h7.47v19.23h1.88v-19.23h7.11v-1.83zm13.03 10.47h2.28c1.54 0 2.81-0.5 3.83-1.5 1.01-1 1.52-2.26 1.52-3.78 0-1.34-0.51-2.54-1.52-3.6-1.07-1.1-2.35-1.65-3.83-1.65h-11.38v21.06h1.88v-10.53h4.95l6.47 10.53h2.28l-6.48-10.53zm-7.23-1.86v-6.78h9.5c0.93 0 1.75 0.33 2.46 0.99 0.67 0.66 1 1.45 1 2.37 0 0.96-0.33 1.77-1 2.43-0.71 0.66-1.53 0.99-2.46 0.99h-9.5zm27.48-8.61c-2.29 0-4.25 0.81-5.89 2.43-1.66 1.64-2.49 3.59-2.49 5.85v4.53c0 2.22 0.83 4.15 2.49 5.79s3.62 2.46 5.89 2.46c2.29 0 4.26-0.82 5.92-2.46 1.64-1.62 2.46-3.55 2.46-5.79v-4.53c0-2.28-0.82-4.23-2.46-5.85s-3.62-2.43-5.92-2.43zm6.49 8.28v4.53c0 1.82-0.65 3.35-1.94 4.59-1.28 1.2-2.79 1.8-4.55 1.8s-3.27-0.6-4.52-1.8c-1.3-1.24-1.94-2.77-1.94-4.59v-4.53c0-1.68 0.65-3.18 1.94-4.5 1.3-1.28 2.8-1.92 4.52-1.92 1.7 0 3.22 0.64 4.55 1.92 1.3 1.32 1.94 2.82 1.94 4.5zm20.07 12.72h3.07l-13.57-10.71 13.57-10.32h-3.07l-11.66 9.18v-9.18h-1.91v21.03h1.91v-9.18l11.66 9.18zm15.3-21.12c-2.27 0-4.17 0.81-5.71 2.43-1.52 1.6-2.28 3.55-2.28 5.85v12.84h1.91v-9.42h12.21v9.42h1.91v-12.84c0-2.3-0.76-4.25-2.28-5.85-1.57-1.62-3.49-2.43-5.76-2.43zm6.13 9.84h-12.21v-1.56c0-1.72 0.59-3.21 1.76-4.47 1.19-1.28 2.63-1.92 4.31-1.92s3.14 0.64 4.37 1.92c1.17 1.26 1.76 2.75 1.76 4.47l0.01 1.56zm6.53 11.28h1.88v-12.72c0-1.68 0.65-3.18 1.94-4.5 1.3-1.28 2.79-1.92 4.49-1.92s3.22 0.64 4.55 1.92c1.3 1.32 1.94 2.82 1.94 4.5v12.72h1.9v-12.72c0-2.28-0.82-4.23-2.46-5.85s-3.61-2.43-5.92-2.43c-2.27 0-4.22 0.81-5.86 2.43s-2.46 3.57-2.46 5.85v12.72z"/>
</svg>
