<svg aria-hidden="true" xmlns="http://www.w3.org/2000/svg" xmlns:xlink="http://www.w3.org/1999/xlink"><symbol viewBox="0 0 512 512" id="circle-plus" xmlns="http://www.w3.org/2000/svg"><path d="M256 0C114.6 0 0 114.6 0 256s114.6 256 256 256C397.4 512 512 397.4 512 256S397.4 0 256 0zM352 280H280V352c0 13.2-10.8 24-23.1 24C242.8 376 232 365.2 232 352V280H160C146.8 280 136 269.2 136 256c0-13.2 10.8-24 24-24H232V160c0-13.2 10.8-24 24-24C269.2 136 280 146.8 280 160v72h72C365.2 232 376 242.8 376 256C376 269.2 365.2 280 352 280z"/></symbol><symbol viewBox="0 0 24 24" stroke-width="1.5" class="bw-6 bh-6" id="forward" xmlns="http://www.w3.org/2000/svg">
  <path stroke-linecap="round" stroke-linejoin="round" d="M3 8.688c0-.864.933-1.405 1.683-.977l7.108 4.062a1.125 1.125 0 010 1.953l-7.108 4.062A1.125 1.125 0 013 16.81V8.688zM12.75 8.688c0-.864.933-1.405 1.683-.977l7.108 4.062a1.125 1.125 0 010 1.953l-7.108 4.062a1.125 1.125 0 01-1.683-.977V8.688z"/>
</symbol><symbol viewBox="0 0 72 72" id="gmail" xmlns="http://www.w3.org/2000/svg">
<path d="m18 26.162v20.385c0 1.109 0.81174 2.0079 1.9301 2.0079h31.815c1.1172 0 1.9301-0.90929 1.9301-2.0079v-20.385c0-1.217-0.72697-2.1623-1.9301-2.1623h-31.815c-1.2495 0-1.9301 0.96852-1.9301 2.1623m2.9334 1.7756c0-0.49123 0.29729-0.77226 0.77226-0.77226 0.29381 0 11.854 7.3254 12.555 7.7551l1.8093 1.1253c0.57368-0.38439 1.1497-0.71303 1.7443-1.1114 1.2135-0.77574 12.011-7.769 12.309-7.769 0.47613 0 0.77226 0.28103 0.77226 0.77226 0 0.52026-1.0022 1.037-1.6548 1.4354-4.1005 2.4991-8.1999 5.2235-12.26 7.8155-0.2369 0.16026-0.69561 0.50284-1.0394 0.45058-0.38323-0.059226-12.147-7.6169-14.287-8.8757-0.32168-0.18929-0.72-0.36232-0.72-0.82568"/>
</symbol><symbol viewBox="0 0 24 24" id="linkedin" xmlns="http://www.w3.org/2000/svg">
      <path d="M20.5 2h-17A1.5 1.5 0 002 3.5v17A1.5 1.5 0 003.5 22h17a1.5 1.5 0 001.5-1.5v-17A1.5 1.5 0 0020.5 2zM8 19H5v-9h3zM6.5 8.25A1.75 1.75 0 118.3 6.5a1.78 1.78 0 01-1.8 1.75zM19 19h-3v-4.74c0-1.42-.6-1.93-1.38-1.93A1.74 1.74 0 0013 14.19a.66.66 0 000 .14V19h-3v-9h2.9v1.3a3.11 3.11 0 012.7-1.4c1.55 0 3.36.86 3.36 3.66z"/>
    </symbol><symbol enable-background="new 0 0 56.7 56.7" viewBox="0 0 56.7 56.7" xml:space="preserve" id="upwork" xmlns="http://www.w3.org/2000/svg"><path d="m38.8 24.6c-2.8 0-3.7 2.7-3.9 4.3v0.1l-0.4 1.5c1.2 1 2.7 1.7 4.2 1.7 2 0 3.8-1.7 3.9-3.9 0-2-1.7-3.7-3.8-3.7z"/><path d="m28.9 3.7c-13.7 0-24.8 11.1-24.8 24.8s11.1 24.8 24.8 24.8 24.8-11.1 24.8-24.8-11.1-24.8-24.8-24.8zm9.9 32.4c-2 0-3.7-0.6-5.2-1.5l-1.7 8h-3.9l2.4-11c-1-1.4-2-3-2.7-4.5v1.7c0 4.1-3.3 7.4-7.3 7.4s-7.3-3.3-7.3-7.4v-10h3.8v10c0 2 1.6 3.6 3.6 3.6s3.6-1.6 3.6-3.6v-10h3.8c0.8 2.5 2.1 5.5 3.8 8.2 1-3.8 3.8-6.1 7.3-6.1 4.1 0 7.5 3.4 7.5 7.5-0.2 4.3-3.6 7.7-7.7 7.7z"/></symbol></svg>