<?xml version="1.0" encoding="UTF-8"?>
<svg viewBox="0 0 72 72" xmlns="http://www.w3.org/2000/svg">
<path d="m18 26.162v20.385c0 1.109 0.81174 2.0079 1.9301 2.0079h31.815c1.1172 0 1.9301-0.90929 1.9301-2.0079v-20.385c0-1.217-0.72697-2.1623-1.9301-2.1623h-31.815c-1.2495 0-1.9301 0.96852-1.9301 2.1623m2.9334 1.7756c0-0.49123 0.29729-0.77226 0.77226-0.77226 0.29381 0 11.854 7.3254 12.555 7.7551l1.8093 1.1253c0.57368-0.38439 1.1497-0.71303 1.7443-1.1114 1.2135-0.77574 12.011-7.769 12.309-7.769 0.47613 0 0.77226 0.28103 0.77226 0.77226 0 0.52026-1.0022 1.037-1.6548 1.4354-4.1005 2.4991-8.1999 5.2235-12.26 7.8155-0.2369 0.16026-0.69561 0.50284-1.0394 0.45058-0.38323-0.059226-12.147-7.6169-14.287-8.8757-0.32168-0.18929-0.72-0.36232-0.72-0.82568" fill="#FFF"/>
</svg>
