<?xml version="1.0" encoding="UTF-8"?>
<svg enable-background="new 0 0 56.7 56.7" version="1.1" viewBox="0 0 56.7 56.7" xml:space="preserve" xmlns="http://www.w3.org/2000/svg"><path d="m38.8 24.6c-2.8 0-3.7 2.7-3.9 4.3v0.1l-0.4 1.5c1.2 1 2.7 1.7 4.2 1.7 2 0 3.8-1.7 3.9-3.9 0-2-1.7-3.7-3.8-3.7z"/><path d="m28.9 3.7c-13.7 0-24.8 11.1-24.8 24.8s11.1 24.8 24.8 24.8 24.8-11.1 24.8-24.8-11.1-24.8-24.8-24.8zm9.9 32.4c-2 0-3.7-0.6-5.2-1.5l-1.7 8h-3.9l2.4-11c-1-1.4-2-3-2.7-4.5v1.7c0 4.1-3.3 7.4-7.3 7.4s-7.3-3.3-7.3-7.4v-10h3.8v10c0 2 1.6 3.6 3.6 3.6s3.6-1.6 3.6-3.6v-10h3.8c0.8 2.5 2.1 5.5 3.8 8.2 1-3.8 3.8-6.1 7.3-6.1 4.1 0 7.5 3.4 7.5 7.5-0.2 4.3-3.6 7.7-7.7 7.7z"/></svg>
